<mxfile host="app.diagrams.net" agent="Mozilla/5.0 (Windows NT 10.0; Win64; x64; rv:138.0) Gecko/20100101 Firefox/138.0" version="27.0.5">
  <diagram name="Page-1" id="PaYdVnrmauC6PGuw0FOv">
    <mxGraphModel dx="2620" dy="1493" grid="1" gridSize="10" guides="1" tooltips="1" connect="1" arrows="1" fold="1" page="1" pageScale="1" pageWidth="827" pageHeight="1169" math="0" shadow="0">
      <root>
        <mxCell id="0" />
        <mxCell id="1" parent="0" />
        <mxCell id="ETDFAHdAhKj-0lvHRUFN-50" value="features_screen" style="shape=umlLifeline;perimeter=lifelinePerimeter;whiteSpace=wrap;html=1;container=0;dropTarget=0;collapsible=0;recursiveResize=0;outlineConnect=0;portConstraint=eastwest;newEdgeStyle={&quot;edgeStyle&quot;:&quot;elbowEdgeStyle&quot;,&quot;elbow&quot;:&quot;vertical&quot;,&quot;curved&quot;:0,&quot;rounded&quot;:0};" vertex="1" parent="1">
          <mxGeometry x="1680" y="430" width="100" height="3750" as="geometry" />
        </mxCell>
        <mxCell id="ETDFAHdAhKj-0lvHRUFN-51" value="" style="html=1;points=[];perimeter=orthogonalPerimeter;outlineConnect=0;targetShapes=umlLifeline;portConstraint=eastwest;newEdgeStyle={&quot;edgeStyle&quot;:&quot;elbowEdgeStyle&quot;,&quot;elbow&quot;:&quot;vertical&quot;,&quot;curved&quot;:0,&quot;rounded&quot;:0};fillColor=#0050ef;fontColor=#ffffff;strokeColor=#001DBC;" vertex="1" parent="ETDFAHdAhKj-0lvHRUFN-50">
          <mxGeometry x="45" y="70" width="10" height="60" as="geometry" />
        </mxCell>
        <mxCell id="ETDFAHdAhKj-0lvHRUFN-52" value="tasklist_loader" style="shape=umlLifeline;perimeter=lifelinePerimeter;whiteSpace=wrap;html=1;container=0;dropTarget=0;collapsible=0;recursiveResize=0;outlineConnect=0;portConstraint=eastwest;newEdgeStyle={&quot;edgeStyle&quot;:&quot;elbowEdgeStyle&quot;,&quot;elbow&quot;:&quot;vertical&quot;,&quot;curved&quot;:0,&quot;rounded&quot;:0};" vertex="1" parent="1">
          <mxGeometry x="2750" y="440" width="120" height="3800" as="geometry" />
        </mxCell>
        <mxCell id="ETDFAHdAhKj-0lvHRUFN-53" value="" style="html=1;points=[];perimeter=orthogonalPerimeter;outlineConnect=0;targetShapes=umlLifeline;portConstraint=eastwest;newEdgeStyle={&quot;edgeStyle&quot;:&quot;elbowEdgeStyle&quot;,&quot;elbow&quot;:&quot;vertical&quot;,&quot;curved&quot;:0,&quot;rounded&quot;:0};fillColor=#0050ef;fontColor=#ffffff;strokeColor=#001DBC;" vertex="1" parent="ETDFAHdAhKj-0lvHRUFN-52">
          <mxGeometry x="55" y="2810" width="10" height="90" as="geometry" />
        </mxCell>
        <mxCell id="ETDFAHdAhKj-0lvHRUFN-54" value="loadtaskList()" style="html=1;verticalAlign=bottom;endArrow=block;edgeStyle=elbowEdgeStyle;elbow=horizontal;curved=0;rounded=0;" edge="1" parent="1" target="ETDFAHdAhKj-0lvHRUFN-59">
          <mxGeometry x="0.9294" relative="1" as="geometry">
            <mxPoint x="2220" y="530" as="sourcePoint" />
            <Array as="points">
              <mxPoint x="1730" y="530" />
            </Array>
            <mxPoint x="2240" y="530" as="targetPoint" />
            <mxPoint as="offset" />
          </mxGeometry>
        </mxCell>
        <mxCell id="ETDFAHdAhKj-0lvHRUFN-55" value="Actor" style="shape=umlActor;verticalLabelPosition=bottom;verticalAlign=top;html=1;outlineConnect=0;" vertex="1" parent="1">
          <mxGeometry x="1570" y="400" width="30" height="60" as="geometry" />
        </mxCell>
        <mxCell id="ETDFAHdAhKj-0lvHRUFN-56" value="" style="endArrow=none;dashed=1;html=1;rounded=0;exitX=0.08;exitY=1;exitDx=0;exitDy=0;exitPerimeter=0;" edge="1" parent="1" source="ETDFAHdAhKj-0lvHRUFN-64">
          <mxGeometry width="50" height="50" relative="1" as="geometry">
            <mxPoint x="1570" y="4430" as="sourcePoint" />
            <mxPoint x="1580" y="490" as="targetPoint" />
          </mxGeometry>
        </mxCell>
        <mxCell id="ETDFAHdAhKj-0lvHRUFN-57" value="" style="endArrow=classic;html=1;rounded=0;" edge="1" parent="1">
          <mxGeometry width="50" height="50" relative="1" as="geometry">
            <mxPoint x="1580" y="530" as="sourcePoint" />
            <mxPoint x="1725" y="530" as="targetPoint" />
          </mxGeometry>
        </mxCell>
        <mxCell id="ETDFAHdAhKj-0lvHRUFN-58" value="casetaskList()" style="edgeLabel;html=1;align=center;verticalAlign=middle;resizable=0;points=[];" vertex="1" connectable="0" parent="ETDFAHdAhKj-0lvHRUFN-57">
          <mxGeometry x="0.1724" y="3" relative="1" as="geometry">
            <mxPoint as="offset" />
          </mxGeometry>
        </mxCell>
        <mxCell id="ETDFAHdAhKj-0lvHRUFN-59" value="" style="html=1;points=[];perimeter=orthogonalPerimeter;outlineConnect=0;targetShapes=umlLifeline;portConstraint=eastwest;newEdgeStyle={&quot;edgeStyle&quot;:&quot;elbowEdgeStyle&quot;,&quot;elbow&quot;:&quot;vertical&quot;,&quot;curved&quot;:0,&quot;rounded&quot;:0};fillColor=#0050ef;fontColor=#ffffff;strokeColor=#001DBC;" vertex="1" parent="1">
          <mxGeometry x="2805" y="520" width="10" height="130" as="geometry" />
        </mxCell>
        <mxCell id="ETDFAHdAhKj-0lvHRUFN-60" value="task_list_screen" style="shape=umlLifeline;perimeter=lifelinePerimeter;whiteSpace=wrap;html=1;container=0;dropTarget=0;collapsible=0;recursiveResize=0;outlineConnect=0;portConstraint=eastwest;newEdgeStyle={&quot;edgeStyle&quot;:&quot;elbowEdgeStyle&quot;,&quot;elbow&quot;:&quot;vertical&quot;,&quot;curved&quot;:0,&quot;rounded&quot;:0};" vertex="1" parent="1">
          <mxGeometry x="1820" y="430" width="100" height="3770" as="geometry" />
        </mxCell>
        <mxCell id="ETDFAHdAhKj-0lvHRUFN-61" value="" style="html=1;points=[];perimeter=orthogonalPerimeter;outlineConnect=0;targetShapes=umlLifeline;portConstraint=eastwest;newEdgeStyle={&quot;edgeStyle&quot;:&quot;elbowEdgeStyle&quot;,&quot;elbow&quot;:&quot;vertical&quot;,&quot;curved&quot;:0,&quot;rounded&quot;:0};fillColor=#0050ef;fontColor=#ffffff;strokeColor=#001DBC;" vertex="1" parent="ETDFAHdAhKj-0lvHRUFN-60">
          <mxGeometry x="45" y="170" width="10" height="100" as="geometry" />
        </mxCell>
        <mxCell id="ETDFAHdAhKj-0lvHRUFN-62" value="" style="html=1;points=[];perimeter=orthogonalPerimeter;outlineConnect=0;targetShapes=umlLifeline;portConstraint=eastwest;newEdgeStyle={&quot;edgeStyle&quot;:&quot;elbowEdgeStyle&quot;,&quot;elbow&quot;:&quot;vertical&quot;,&quot;curved&quot;:0,&quot;rounded&quot;:0};fillColor=#0050ef;fontColor=#ffffff;strokeColor=#001DBC;" vertex="1" parent="ETDFAHdAhKj-0lvHRUFN-60">
          <mxGeometry x="45" y="1500" width="10" height="40" as="geometry" />
        </mxCell>
        <mxCell id="ETDFAHdAhKj-0lvHRUFN-63" value="Saved tasks found" style="html=1;verticalAlign=bottom;endArrow=open;dashed=1;endSize=8;edgeStyle=elbowEdgeStyle;elbow=horizontal;curved=0;rounded=0;" edge="1" parent="1" source="ETDFAHdAhKj-0lvHRUFN-52">
          <mxGeometry x="-0.8154" relative="1" as="geometry">
            <mxPoint x="1875" y="620" as="targetPoint" />
            <Array as="points">
              <mxPoint x="2070" y="620" />
            </Array>
            <mxPoint x="2145" y="620" as="sourcePoint" />
            <mxPoint as="offset" />
          </mxGeometry>
        </mxCell>
        <mxCell id="ETDFAHdAhKj-0lvHRUFN-64" value="alt" style="shape=umlFrame;whiteSpace=wrap;html=1;pointerEvents=0;" vertex="1" parent="1">
          <mxGeometry x="1460" y="568" width="1420" height="3692" as="geometry" />
        </mxCell>
        <mxCell id="ETDFAHdAhKj-0lvHRUFN-65" value="addTaskbuttonpress()" style="html=1;verticalAlign=bottom;endArrow=block;edgeStyle=elbowEdgeStyle;elbow=horizontal;curved=0;rounded=0;" edge="1" parent="1">
          <mxGeometry x="0.2743" relative="1" as="geometry">
            <mxPoint x="1860" y="650" as="sourcePoint" />
            <Array as="points">
              <mxPoint x="1580" y="650" />
            </Array>
            <mxPoint x="1865" y="650" as="targetPoint" />
            <mxPoint as="offset" />
          </mxGeometry>
        </mxCell>
        <mxCell id="ETDFAHdAhKj-0lvHRUFN-66" value="" style="html=1;points=[];perimeter=orthogonalPerimeter;outlineConnect=0;targetShapes=umlLifeline;portConstraint=eastwest;newEdgeStyle={&quot;edgeStyle&quot;:&quot;elbowEdgeStyle&quot;,&quot;elbow&quot;:&quot;vertical&quot;,&quot;curved&quot;:0,&quot;rounded&quot;:0};fillColor=#0050ef;fontColor=#ffffff;strokeColor=#001DBC;" vertex="1" parent="1">
          <mxGeometry x="2635" y="1020" width="10" height="140" as="geometry" />
        </mxCell>
        <mxCell id="ETDFAHdAhKj-0lvHRUFN-67" value="addTaskbutton()" style="html=1;verticalAlign=bottom;endArrow=block;edgeStyle=elbowEdgeStyle;elbow=vertical;curved=0;rounded=0;" edge="1" parent="1" target="ETDFAHdAhKj-0lvHRUFN-69">
          <mxGeometry x="0.2477" relative="1" as="geometry">
            <mxPoint x="1870" y="690" as="sourcePoint" />
            <Array as="points" />
            <mxPoint x="1975" y="690" as="targetPoint" />
            <mxPoint as="offset" />
          </mxGeometry>
        </mxCell>
        <mxCell id="ETDFAHdAhKj-0lvHRUFN-68" value="add_task_button" style="shape=umlLifeline;perimeter=lifelinePerimeter;whiteSpace=wrap;html=1;container=0;dropTarget=0;collapsible=0;recursiveResize=0;outlineConnect=0;portConstraint=eastwest;newEdgeStyle={&quot;edgeStyle&quot;:&quot;elbowEdgeStyle&quot;,&quot;elbow&quot;:&quot;vertical&quot;,&quot;curved&quot;:0,&quot;rounded&quot;:0};" vertex="1" parent="1">
          <mxGeometry x="1950" y="430" width="100" height="3780" as="geometry" />
        </mxCell>
        <mxCell id="ETDFAHdAhKj-0lvHRUFN-69" value="" style="html=1;points=[];perimeter=orthogonalPerimeter;outlineConnect=0;targetShapes=umlLifeline;portConstraint=eastwest;newEdgeStyle={&quot;edgeStyle&quot;:&quot;elbowEdgeStyle&quot;,&quot;elbow&quot;:&quot;vertical&quot;,&quot;curved&quot;:0,&quot;rounded&quot;:0};fillColor=#0050ef;fontColor=#ffffff;strokeColor=#001DBC;" vertex="1" parent="ETDFAHdAhKj-0lvHRUFN-68">
          <mxGeometry x="45" y="250" width="10" height="50" as="geometry" />
        </mxCell>
        <mxCell id="ETDFAHdAhKj-0lvHRUFN-70" value="" style="endArrow=none;dashed=1;html=1;rounded=0;entryX=1.001;entryY=0.745;entryDx=0;entryDy=0;entryPerimeter=0;exitX=0;exitY=0.747;exitDx=0;exitDy=0;exitPerimeter=0;" edge="1" parent="1">
          <mxGeometry width="50" height="50" relative="1" as="geometry">
            <mxPoint x="1460" y="3192.6639999999998" as="sourcePoint" />
            <mxPoint x="2881.42" y="3190" as="targetPoint" />
          </mxGeometry>
        </mxCell>
        <mxCell id="ETDFAHdAhKj-0lvHRUFN-71" value="new_task_screen" style="shape=umlLifeline;perimeter=lifelinePerimeter;whiteSpace=wrap;html=1;container=0;dropTarget=0;collapsible=0;recursiveResize=0;outlineConnect=0;portConstraint=eastwest;newEdgeStyle={&quot;edgeStyle&quot;:&quot;elbowEdgeStyle&quot;,&quot;elbow&quot;:&quot;vertical&quot;,&quot;curved&quot;:0,&quot;rounded&quot;:0};" vertex="1" parent="1">
          <mxGeometry x="2070" y="430" width="100" height="3780" as="geometry" />
        </mxCell>
        <mxCell id="ETDFAHdAhKj-0lvHRUFN-72" value="" style="html=1;points=[];perimeter=orthogonalPerimeter;outlineConnect=0;targetShapes=umlLifeline;portConstraint=eastwest;newEdgeStyle={&quot;edgeStyle&quot;:&quot;elbowEdgeStyle&quot;,&quot;elbow&quot;:&quot;vertical&quot;,&quot;curved&quot;:0,&quot;rounded&quot;:0};fillColor=#0050ef;fontColor=#ffffff;strokeColor=#001DBC;" vertex="1" parent="ETDFAHdAhKj-0lvHRUFN-71">
          <mxGeometry x="45" y="315" width="10" height="60" as="geometry" />
        </mxCell>
        <mxCell id="ETDFAHdAhKj-0lvHRUFN-73" value="[Saved Tasks]" style="text;html=1;align=center;verticalAlign=middle;resizable=0;points=[];autosize=1;strokeColor=none;fillColor=none;" vertex="1" parent="1">
          <mxGeometry x="2010" y="568" width="100" height="30" as="geometry" />
        </mxCell>
        <mxCell id="ETDFAHdAhKj-0lvHRUFN-74" value="tasklist_manager" style="shape=umlLifeline;perimeter=lifelinePerimeter;whiteSpace=wrap;html=1;container=0;dropTarget=0;collapsible=0;recursiveResize=0;outlineConnect=0;portConstraint=eastwest;newEdgeStyle={&quot;edgeStyle&quot;:&quot;elbowEdgeStyle&quot;,&quot;elbow&quot;:&quot;vertical&quot;,&quot;curved&quot;:0,&quot;rounded&quot;:0};" vertex="1" parent="1">
          <mxGeometry x="2580" y="440" width="120" height="3760" as="geometry" />
        </mxCell>
        <mxCell id="ETDFAHdAhKj-0lvHRUFN-75" value="" style="html=1;points=[];perimeter=orthogonalPerimeter;outlineConnect=0;targetShapes=umlLifeline;portConstraint=eastwest;newEdgeStyle={&quot;edgeStyle&quot;:&quot;elbowEdgeStyle&quot;,&quot;elbow&quot;:&quot;vertical&quot;,&quot;curved&quot;:0,&quot;rounded&quot;:0};fillColor=#0050ef;fontColor=#ffffff;strokeColor=#001DBC;" vertex="1" parent="ETDFAHdAhKj-0lvHRUFN-74">
          <mxGeometry x="55" y="1620" width="10" height="100" as="geometry" />
        </mxCell>
        <mxCell id="ETDFAHdAhKj-0lvHRUFN-76" value="" style="html=1;points=[];perimeter=orthogonalPerimeter;outlineConnect=0;targetShapes=umlLifeline;portConstraint=eastwest;newEdgeStyle={&quot;edgeStyle&quot;:&quot;elbowEdgeStyle&quot;,&quot;elbow&quot;:&quot;vertical&quot;,&quot;curved&quot;:0,&quot;rounded&quot;:0};fillColor=#0050ef;fontColor=#ffffff;strokeColor=#001DBC;" vertex="1" parent="1">
          <mxGeometry x="2635" y="710" width="10" height="60" as="geometry" />
        </mxCell>
        <mxCell id="ETDFAHdAhKj-0lvHRUFN-77" value="addTask()" style="html=1;verticalAlign=bottom;endArrow=block;edgeStyle=elbowEdgeStyle;elbow=vertical;curved=0;rounded=0;" edge="1" parent="1" target="ETDFAHdAhKj-0lvHRUFN-76">
          <mxGeometry x="-0.7681" relative="1" as="geometry">
            <mxPoint x="2000" y="720" as="sourcePoint" />
            <Array as="points" />
            <mxPoint x="2340" y="720" as="targetPoint" />
            <mxPoint as="offset" />
          </mxGeometry>
        </mxCell>
        <mxCell id="ETDFAHdAhKj-0lvHRUFN-78" value="alt" style="shape=umlFrame;whiteSpace=wrap;html=1;pointerEvents=0;" vertex="1" parent="1">
          <mxGeometry x="1475" y="630" width="1390" height="2530" as="geometry" />
        </mxCell>
        <mxCell id="ETDFAHdAhKj-0lvHRUFN-79" value="[Add Task]" style="text;html=1;align=center;verticalAlign=middle;resizable=0;points=[];autosize=1;strokeColor=none;fillColor=none;" vertex="1" parent="1">
          <mxGeometry x="2010" y="630" width="80" height="30" as="geometry" />
        </mxCell>
        <mxCell id="ETDFAHdAhKj-0lvHRUFN-80" value="" style="html=1;points=[];perimeter=orthogonalPerimeter;outlineConnect=0;targetShapes=umlLifeline;portConstraint=eastwest;newEdgeStyle={&quot;edgeStyle&quot;:&quot;elbowEdgeStyle&quot;,&quot;elbow&quot;:&quot;vertical&quot;,&quot;curved&quot;:0,&quot;rounded&quot;:0};fillColor=#0050ef;fontColor=#ffffff;strokeColor=#001DBC;" vertex="1" parent="1">
          <mxGeometry x="1865" y="790" width="10" height="60" as="geometry" />
        </mxCell>
        <mxCell id="ETDFAHdAhKj-0lvHRUFN-81" value="Loads new task screen" style="html=1;verticalAlign=bottom;endArrow=open;dashed=1;endSize=8;edgeStyle=elbowEdgeStyle;elbow=horizontal;curved=0;rounded=0;" edge="1" parent="1" source="ETDFAHdAhKj-0lvHRUFN-76">
          <mxGeometry x="-0.4915" relative="1" as="geometry">
            <mxPoint x="2120" y="760" as="targetPoint" />
            <Array as="points">
              <mxPoint x="2285" y="760" />
            </Array>
            <mxPoint x="2320" y="760" as="sourcePoint" />
            <mxPoint as="offset" />
          </mxGeometry>
        </mxCell>
        <mxCell id="ETDFAHdAhKj-0lvHRUFN-82" value="newTasktext()" style="html=1;verticalAlign=bottom;endArrow=block;edgeStyle=elbowEdgeStyle;elbow=horizontal;curved=0;rounded=0;" edge="1" parent="1" target="ETDFAHdAhKj-0lvHRUFN-72">
          <mxGeometry x="0.2743" relative="1" as="geometry">
            <mxPoint x="1860" y="774.5" as="sourcePoint" />
            <Array as="points">
              <mxPoint x="1580" y="774.5" />
            </Array>
            <mxPoint x="1865" y="774.5" as="targetPoint" />
            <mxPoint as="offset" />
          </mxGeometry>
        </mxCell>
        <mxCell id="ETDFAHdAhKj-0lvHRUFN-83" value="Loads complete new list" style="html=1;verticalAlign=bottom;endArrow=open;dashed=1;endSize=8;edgeStyle=elbowEdgeStyle;elbow=horizontal;curved=0;rounded=0;" edge="1" parent="1">
          <mxGeometry x="0.2553" relative="1" as="geometry">
            <mxPoint x="1880" y="800" as="targetPoint" />
            <Array as="points">
              <mxPoint x="2052.5" y="800" />
            </Array>
            <mxPoint x="2112.5" y="800" as="sourcePoint" />
            <mxPoint as="offset" />
          </mxGeometry>
        </mxCell>
        <mxCell id="ETDFAHdAhKj-0lvHRUFN-84" value="" style="endArrow=none;dashed=1;html=1;rounded=0;" edge="1" parent="1">
          <mxGeometry width="50" height="50" relative="1" as="geometry">
            <mxPoint x="1470" y="890" as="sourcePoint" />
            <mxPoint x="2860" y="890" as="targetPoint" />
          </mxGeometry>
        </mxCell>
        <mxCell id="ETDFAHdAhKj-0lvHRUFN-85" value="starting_screen" style="shape=umlLifeline;perimeter=lifelinePerimeter;whiteSpace=wrap;html=1;container=0;dropTarget=0;collapsible=0;recursiveResize=0;outlineConnect=0;portConstraint=eastwest;newEdgeStyle={&quot;edgeStyle&quot;:&quot;elbowEdgeStyle&quot;,&quot;elbow&quot;:&quot;vertical&quot;,&quot;curved&quot;:0,&quot;rounded&quot;:0};" vertex="1" parent="1">
          <mxGeometry x="2450" y="430" width="100" height="3810" as="geometry" />
        </mxCell>
        <mxCell id="ETDFAHdAhKj-0lvHRUFN-86" value="" style="html=1;points=[];perimeter=orthogonalPerimeter;outlineConnect=0;targetShapes=umlLifeline;portConstraint=eastwest;newEdgeStyle={&quot;edgeStyle&quot;:&quot;elbowEdgeStyle&quot;,&quot;elbow&quot;:&quot;vertical&quot;,&quot;curved&quot;:0,&quot;rounded&quot;:0};fillColor=#0050ef;fontColor=#ffffff;strokeColor=#001DBC;" vertex="1" parent="ETDFAHdAhKj-0lvHRUFN-85">
          <mxGeometry x="45" y="385" width="10" height="60" as="geometry" />
        </mxCell>
        <mxCell id="ETDFAHdAhKj-0lvHRUFN-87" value="returnb()" style="html=1;verticalAlign=bottom;endArrow=block;edgeStyle=elbowEdgeStyle;elbow=horizontal;curved=0;rounded=0;" edge="1" parent="1">
          <mxGeometry x="0.2743" relative="1" as="geometry">
            <mxPoint x="1860" y="830" as="sourcePoint" />
            <Array as="points">
              <mxPoint x="1580" y="830" />
            </Array>
            <mxPoint x="1865" y="830" as="targetPoint" />
            <mxPoint as="offset" />
          </mxGeometry>
        </mxCell>
        <mxCell id="ETDFAHdAhKj-0lvHRUFN-88" value="loadStartingscreen()" style="html=1;verticalAlign=bottom;endArrow=block;edgeStyle=elbowEdgeStyle;elbow=horizontal;curved=0;rounded=0;" edge="1" parent="1" target="ETDFAHdAhKj-0lvHRUFN-86">
          <mxGeometry x="0.2743" relative="1" as="geometry">
            <mxPoint x="2155" y="839" as="sourcePoint" />
            <Array as="points">
              <mxPoint x="1875" y="839" />
            </Array>
            <mxPoint x="2230" y="840" as="targetPoint" />
            <mxPoint as="offset" />
          </mxGeometry>
        </mxCell>
        <mxCell id="ETDFAHdAhKj-0lvHRUFN-89" value="[Task Completion]" style="text;html=1;align=center;verticalAlign=middle;resizable=0;points=[];autosize=1;strokeColor=none;fillColor=none;" vertex="1" parent="1">
          <mxGeometry x="2000" y="890" width="120" height="30" as="geometry" />
        </mxCell>
        <mxCell id="ETDFAHdAhKj-0lvHRUFN-90" value="alt" style="shape=umlFrame;whiteSpace=wrap;html=1;pointerEvents=0;" vertex="1" parent="1">
          <mxGeometry x="1500" y="1080" width="1340" height="1100" as="geometry" />
        </mxCell>
        <mxCell id="ETDFAHdAhKj-0lvHRUFN-91" value="[Complete and Delete]" style="text;html=1;align=center;verticalAlign=middle;resizable=0;points=[];autosize=1;strokeColor=none;fillColor=none;" vertex="1" parent="1">
          <mxGeometry x="2665" y="1080" width="140" height="30" as="geometry" />
        </mxCell>
        <mxCell id="ETDFAHdAhKj-0lvHRUFN-92" value="" style="html=1;points=[];perimeter=orthogonalPerimeter;outlineConnect=0;targetShapes=umlLifeline;portConstraint=eastwest;newEdgeStyle={&quot;edgeStyle&quot;:&quot;elbowEdgeStyle&quot;,&quot;elbow&quot;:&quot;vertical&quot;,&quot;curved&quot;:0,&quot;rounded&quot;:0};fillColor=#0050ef;fontColor=#ffffff;strokeColor=#001DBC;" vertex="1" parent="1">
          <mxGeometry x="1865" y="980" width="10" height="140" as="geometry" />
        </mxCell>
        <mxCell id="ETDFAHdAhKj-0lvHRUFN-93" value="completionButton()" style="html=1;verticalAlign=bottom;endArrow=block;edgeStyle=elbowEdgeStyle;elbow=horizontal;curved=0;rounded=0;" edge="1" parent="1">
          <mxGeometry x="0.2743" relative="1" as="geometry">
            <mxPoint x="1860" y="1000" as="sourcePoint" />
            <Array as="points">
              <mxPoint x="1580" y="1000" />
            </Array>
            <mxPoint x="1865" y="1000" as="targetPoint" />
            <mxPoint as="offset" />
          </mxGeometry>
        </mxCell>
        <mxCell id="ETDFAHdAhKj-0lvHRUFN-94" value="completeTask()" style="html=1;verticalAlign=bottom;endArrow=block;edgeStyle=elbowEdgeStyle;elbow=vertical;curved=0;rounded=0;" edge="1" parent="1" source="ETDFAHdAhKj-0lvHRUFN-92">
          <mxGeometry x="-0.8028" y="1" relative="1" as="geometry">
            <mxPoint x="2259.5" y="1029.5" as="sourcePoint" />
            <Array as="points" />
            <mxPoint x="2635" y="1029.5" as="targetPoint" />
            <mxPoint y="1" as="offset" />
          </mxGeometry>
        </mxCell>
        <mxCell id="ETDFAHdAhKj-0lvHRUFN-95" value="Loads new task screen" style="html=1;verticalAlign=bottom;endArrow=open;dashed=1;endSize=8;edgeStyle=elbowEdgeStyle;elbow=horizontal;curved=0;rounded=0;" edge="1" parent="1" target="ETDFAHdAhKj-0lvHRUFN-92">
          <mxGeometry x="-0.4915" relative="1" as="geometry">
            <mxPoint x="2115" y="1070" as="targetPoint" />
            <Array as="points">
              <mxPoint x="2280" y="1070" />
            </Array>
            <mxPoint x="2630" y="1070" as="sourcePoint" />
            <mxPoint as="offset" />
          </mxGeometry>
        </mxCell>
        <mxCell id="ETDFAHdAhKj-0lvHRUFN-96" value="deleteButton()" style="html=1;verticalAlign=bottom;endArrow=block;edgeStyle=elbowEdgeStyle;elbow=horizontal;curved=0;rounded=0;" edge="1" parent="1">
          <mxGeometry x="0.2743" relative="1" as="geometry">
            <mxPoint x="1860" y="1100" as="sourcePoint" />
            <Array as="points">
              <mxPoint x="1580" y="1100" />
            </Array>
            <mxPoint x="1865" y="1100" as="targetPoint" />
            <mxPoint as="offset" />
          </mxGeometry>
        </mxCell>
        <mxCell id="ETDFAHdAhKj-0lvHRUFN-97" value="deleteTask()" style="html=1;verticalAlign=bottom;endArrow=block;edgeStyle=elbowEdgeStyle;elbow=vertical;curved=0;rounded=0;" edge="1" parent="1">
          <mxGeometry x="-0.7681" relative="1" as="geometry">
            <mxPoint x="1875" y="1109" as="sourcePoint" />
            <Array as="points" />
            <mxPoint x="2635" y="1109.5" as="targetPoint" />
            <mxPoint as="offset" />
          </mxGeometry>
        </mxCell>
        <mxCell id="ETDFAHdAhKj-0lvHRUFN-98" value="&lt;div&gt;Loads delete menu&lt;/div&gt;" style="html=1;verticalAlign=bottom;endArrow=open;dashed=1;endSize=8;edgeStyle=elbowEdgeStyle;elbow=horizontal;curved=0;rounded=0;" edge="1" parent="1" target="ETDFAHdAhKj-0lvHRUFN-100">
          <mxGeometry x="-0.4915" relative="1" as="geometry">
            <mxPoint x="2270" y="1140" as="targetPoint" />
            <Array as="points">
              <mxPoint x="2285" y="1140" />
            </Array>
            <mxPoint x="2635" y="1140" as="sourcePoint" />
            <mxPoint as="offset" />
          </mxGeometry>
        </mxCell>
        <mxCell id="ETDFAHdAhKj-0lvHRUFN-99" value="delete_menu" style="shape=umlLifeline;perimeter=lifelinePerimeter;whiteSpace=wrap;html=1;container=0;dropTarget=0;collapsible=0;recursiveResize=0;outlineConnect=0;portConstraint=eastwest;newEdgeStyle={&quot;edgeStyle&quot;:&quot;elbowEdgeStyle&quot;,&quot;elbow&quot;:&quot;vertical&quot;,&quot;curved&quot;:0,&quot;rounded&quot;:0};" vertex="1" parent="1">
          <mxGeometry x="2210" y="430" width="100" height="3790" as="geometry" />
        </mxCell>
        <mxCell id="ETDFAHdAhKj-0lvHRUFN-100" value="" style="html=1;points=[];perimeter=orthogonalPerimeter;outlineConnect=0;targetShapes=umlLifeline;portConstraint=eastwest;newEdgeStyle={&quot;edgeStyle&quot;:&quot;elbowEdgeStyle&quot;,&quot;elbow&quot;:&quot;vertical&quot;,&quot;curved&quot;:0,&quot;rounded&quot;:0};fillColor=#0050ef;fontColor=#ffffff;strokeColor=#001DBC;" vertex="1" parent="ETDFAHdAhKj-0lvHRUFN-99">
          <mxGeometry x="45" y="690" width="10" height="80" as="geometry" />
        </mxCell>
        <mxCell id="ETDFAHdAhKj-0lvHRUFN-101" value="" style="html=1;points=[];perimeter=orthogonalPerimeter;outlineConnect=0;targetShapes=umlLifeline;portConstraint=eastwest;newEdgeStyle={&quot;edgeStyle&quot;:&quot;elbowEdgeStyle&quot;,&quot;elbow&quot;:&quot;vertical&quot;,&quot;curved&quot;:0,&quot;rounded&quot;:0};fillColor=#0050ef;fontColor=#ffffff;strokeColor=#001DBC;" vertex="1" parent="ETDFAHdAhKj-0lvHRUFN-99">
          <mxGeometry x="45" y="980" width="10" height="80" as="geometry" />
        </mxCell>
        <mxCell id="ETDFAHdAhKj-0lvHRUFN-102" value="" style="html=1;points=[];perimeter=orthogonalPerimeter;outlineConnect=0;targetShapes=umlLifeline;portConstraint=eastwest;newEdgeStyle={&quot;edgeStyle&quot;:&quot;elbowEdgeStyle&quot;,&quot;elbow&quot;:&quot;vertical&quot;,&quot;curved&quot;:0,&quot;rounded&quot;:0};fillColor=#0050ef;fontColor=#ffffff;strokeColor=#001DBC;" vertex="1" parent="ETDFAHdAhKj-0lvHRUFN-99">
          <mxGeometry x="45" y="1370" width="10" height="80" as="geometry" />
        </mxCell>
        <mxCell id="ETDFAHdAhKj-0lvHRUFN-103" value="deletenow()" style="html=1;verticalAlign=bottom;endArrow=block;edgeStyle=elbowEdgeStyle;elbow=horizontal;curved=0;rounded=0;" edge="1" parent="1" target="ETDFAHdAhKj-0lvHRUFN-100">
          <mxGeometry x="0.2743" relative="1" as="geometry">
            <mxPoint x="1860" y="1160" as="sourcePoint" />
            <Array as="points">
              <mxPoint x="1580" y="1160" />
            </Array>
            <mxPoint x="2250" y="1160" as="targetPoint" />
            <mxPoint as="offset" />
          </mxGeometry>
        </mxCell>
        <mxCell id="ETDFAHdAhKj-0lvHRUFN-104" value="" style="html=1;points=[];perimeter=orthogonalPerimeter;outlineConnect=0;targetShapes=umlLifeline;portConstraint=eastwest;newEdgeStyle={&quot;edgeStyle&quot;:&quot;elbowEdgeStyle&quot;,&quot;elbow&quot;:&quot;vertical&quot;,&quot;curved&quot;:0,&quot;rounded&quot;:0};fillColor=#0050ef;fontColor=#ffffff;strokeColor=#001DBC;" vertex="1" parent="1">
          <mxGeometry x="1865" y="1180" width="10" height="60" as="geometry" />
        </mxCell>
        <mxCell id="ETDFAHdAhKj-0lvHRUFN-105" value="Loads new task screen" style="html=1;verticalAlign=bottom;endArrow=open;dashed=1;endSize=8;edgeStyle=elbowEdgeStyle;elbow=horizontal;curved=0;rounded=0;" edge="1" parent="1">
          <mxGeometry x="-0.4915" relative="1" as="geometry">
            <mxPoint x="1875" y="1190" as="targetPoint" />
            <Array as="points" />
            <mxPoint x="2250" y="1190" as="sourcePoint" />
            <mxPoint as="offset" />
          </mxGeometry>
        </mxCell>
        <mxCell id="ETDFAHdAhKj-0lvHRUFN-106" value="" style="endArrow=none;dashed=1;html=1;rounded=0;exitX=-0.001;exitY=0.449;exitDx=0;exitDy=0;exitPerimeter=0;entryX=1.001;entryY=0.449;entryDx=0;entryDy=0;entryPerimeter=0;" edge="1" parent="1">
          <mxGeometry width="50" height="50" relative="1" as="geometry">
            <mxPoint x="1500" y="1270.0000000000002" as="sourcePoint" />
            <mxPoint x="2842.6800000000003" y="1270.0000000000002" as="targetPoint" />
          </mxGeometry>
        </mxCell>
        <mxCell id="ETDFAHdAhKj-0lvHRUFN-107" value="[Auto-deletion]" style="text;html=1;align=center;verticalAlign=middle;resizable=0;points=[];autosize=1;strokeColor=none;fillColor=none;" vertex="1" parent="1">
          <mxGeometry x="2695" y="1275" width="100" height="30" as="geometry" />
        </mxCell>
        <mxCell id="ETDFAHdAhKj-0lvHRUFN-108" value="" style="html=1;points=[];perimeter=orthogonalPerimeter;outlineConnect=0;targetShapes=umlLifeline;portConstraint=eastwest;newEdgeStyle={&quot;edgeStyle&quot;:&quot;elbowEdgeStyle&quot;,&quot;elbow&quot;:&quot;vertical&quot;,&quot;curved&quot;:0,&quot;rounded&quot;:0};fillColor=#0050ef;fontColor=#ffffff;strokeColor=#001DBC;" vertex="1" parent="1">
          <mxGeometry x="1865" y="1305" width="10" height="60" as="geometry" />
        </mxCell>
        <mxCell id="ETDFAHdAhKj-0lvHRUFN-109" value="deleteButton()" style="html=1;verticalAlign=bottom;endArrow=block;edgeStyle=elbowEdgeStyle;elbow=horizontal;curved=0;rounded=0;" edge="1" parent="1">
          <mxGeometry x="0.2743" relative="1" as="geometry">
            <mxPoint x="1860" y="1334.5" as="sourcePoint" />
            <Array as="points">
              <mxPoint x="1580" y="1334.5" />
            </Array>
            <mxPoint x="1865" y="1334.5" as="targetPoint" />
            <mxPoint as="offset" />
          </mxGeometry>
        </mxCell>
        <mxCell id="ETDFAHdAhKj-0lvHRUFN-110" value="" style="html=1;points=[];perimeter=orthogonalPerimeter;outlineConnect=0;targetShapes=umlLifeline;portConstraint=eastwest;newEdgeStyle={&quot;edgeStyle&quot;:&quot;elbowEdgeStyle&quot;,&quot;elbow&quot;:&quot;vertical&quot;,&quot;curved&quot;:0,&quot;rounded&quot;:0};fillColor=#0050ef;fontColor=#ffffff;strokeColor=#001DBC;" vertex="1" parent="1">
          <mxGeometry x="2635" y="1320" width="10" height="250" as="geometry" />
        </mxCell>
        <mxCell id="ETDFAHdAhKj-0lvHRUFN-111" value="deleteTask()" style="html=1;verticalAlign=bottom;endArrow=block;edgeStyle=elbowEdgeStyle;elbow=vertical;curved=0;rounded=0;" edge="1" parent="1">
          <mxGeometry x="-0.7681" relative="1" as="geometry">
            <mxPoint x="1875" y="1334.5" as="sourcePoint" />
            <Array as="points" />
            <mxPoint x="2635" y="1335" as="targetPoint" />
            <mxPoint as="offset" />
          </mxGeometry>
        </mxCell>
        <mxCell id="ETDFAHdAhKj-0lvHRUFN-112" value="&lt;div&gt;Loads delete menu&lt;/div&gt;" style="html=1;verticalAlign=bottom;endArrow=open;dashed=1;endSize=8;edgeStyle=elbowEdgeStyle;elbow=horizontal;curved=0;rounded=0;" edge="1" parent="1">
          <mxGeometry x="-0.4915" relative="1" as="geometry">
            <mxPoint x="2265" y="1420" as="targetPoint" />
            <Array as="points">
              <mxPoint x="2285" y="1420" />
            </Array>
            <mxPoint x="2635" y="1420" as="sourcePoint" />
            <mxPoint as="offset" />
          </mxGeometry>
        </mxCell>
        <mxCell id="ETDFAHdAhKj-0lvHRUFN-113" value="deleteSETUPTIMER()" style="html=1;verticalAlign=bottom;endArrow=block;edgeStyle=elbowEdgeStyle;elbow=horizontal;curved=0;rounded=0;" edge="1" parent="1">
          <mxGeometry x="0.2743" relative="1" as="geometry">
            <mxPoint x="1860" y="1450" as="sourcePoint" />
            <Array as="points">
              <mxPoint x="1580" y="1450" />
            </Array>
            <mxPoint x="2255" y="1450" as="targetPoint" />
            <mxPoint as="offset" />
          </mxGeometry>
        </mxCell>
        <mxCell id="ETDFAHdAhKj-0lvHRUFN-114" value="deleteTimerinit()" style="html=1;verticalAlign=bottom;endArrow=block;edgeStyle=elbowEdgeStyle;elbow=vertical;curved=0;rounded=0;" edge="1" parent="1" target="ETDFAHdAhKj-0lvHRUFN-110">
          <mxGeometry x="-0.6267" relative="1" as="geometry">
            <mxPoint x="2260" y="1480" as="sourcePoint" />
            <Array as="points" />
            <mxPoint x="2660" y="1480.5" as="targetPoint" />
            <mxPoint as="offset" />
          </mxGeometry>
        </mxCell>
        <mxCell id="ETDFAHdAhKj-0lvHRUFN-115" value="" style="html=1;points=[];perimeter=orthogonalPerimeter;outlineConnect=0;targetShapes=umlLifeline;portConstraint=eastwest;newEdgeStyle={&quot;edgeStyle&quot;:&quot;elbowEdgeStyle&quot;,&quot;elbow&quot;:&quot;vertical&quot;,&quot;curved&quot;:0,&quot;rounded&quot;:0};fillColor=#0050ef;fontColor=#ffffff;strokeColor=#001DBC;" vertex="1" parent="1">
          <mxGeometry x="1865" y="1530" width="10" height="90" as="geometry" />
        </mxCell>
        <mxCell id="ETDFAHdAhKj-0lvHRUFN-116" value="Loads task screen and after set amount of time deletes task" style="html=1;verticalAlign=bottom;endArrow=open;dashed=1;endSize=8;edgeStyle=elbowEdgeStyle;elbow=horizontal;curved=0;rounded=0;" edge="1" parent="1">
          <mxGeometry x="0.4834" relative="1" as="geometry">
            <mxPoint x="1875" y="1550" as="targetPoint" />
            <Array as="points">
              <mxPoint x="2280" y="1550" />
            </Array>
            <mxPoint x="2630" y="1550" as="sourcePoint" />
            <mxPoint as="offset" />
          </mxGeometry>
        </mxCell>
        <mxCell id="ETDFAHdAhKj-0lvHRUFN-117" value="" style="endArrow=none;dashed=1;html=1;rounded=0;exitX=-0.001;exitY=0.449;exitDx=0;exitDy=0;exitPerimeter=0;entryX=1.001;entryY=0.449;entryDx=0;entryDy=0;entryPerimeter=0;" edge="1" parent="1">
          <mxGeometry width="50" height="50" relative="1" as="geometry">
            <mxPoint x="1490" y="1670.0000000000002" as="sourcePoint" />
            <mxPoint x="2832.6800000000003" y="1670.0000000000002" as="targetPoint" />
          </mxGeometry>
        </mxCell>
        <mxCell id="ETDFAHdAhKj-0lvHRUFN-118" value="[Auto-completion]" style="text;html=1;align=center;verticalAlign=middle;resizable=0;points=[];autosize=1;strokeColor=none;fillColor=none;" vertex="1" parent="1">
          <mxGeometry x="2680" y="1678" width="120" height="30" as="geometry" />
        </mxCell>
        <mxCell id="ETDFAHdAhKj-0lvHRUFN-119" value="" style="html=1;points=[];perimeter=orthogonalPerimeter;outlineConnect=0;targetShapes=umlLifeline;portConstraint=eastwest;newEdgeStyle={&quot;edgeStyle&quot;:&quot;elbowEdgeStyle&quot;,&quot;elbow&quot;:&quot;vertical&quot;,&quot;curved&quot;:0,&quot;rounded&quot;:0};fillColor=#0050ef;fontColor=#ffffff;strokeColor=#001DBC;" vertex="1" parent="1">
          <mxGeometry x="1865" y="1720" width="10" height="60" as="geometry" />
        </mxCell>
        <mxCell id="ETDFAHdAhKj-0lvHRUFN-120" value="deleteButton()" style="html=1;verticalAlign=bottom;endArrow=block;edgeStyle=elbowEdgeStyle;elbow=horizontal;curved=0;rounded=0;" edge="1" parent="1">
          <mxGeometry x="0.2743" relative="1" as="geometry">
            <mxPoint x="1860" y="1740" as="sourcePoint" />
            <Array as="points">
              <mxPoint x="1580" y="1740" />
            </Array>
            <mxPoint x="1865" y="1740" as="targetPoint" />
            <mxPoint as="offset" />
          </mxGeometry>
        </mxCell>
        <mxCell id="ETDFAHdAhKj-0lvHRUFN-121" value="" style="html=1;points=[];perimeter=orthogonalPerimeter;outlineConnect=0;targetShapes=umlLifeline;portConstraint=eastwest;newEdgeStyle={&quot;edgeStyle&quot;:&quot;elbowEdgeStyle&quot;,&quot;elbow&quot;:&quot;vertical&quot;,&quot;curved&quot;:0,&quot;rounded&quot;:0};fillColor=#0050ef;fontColor=#ffffff;strokeColor=#001DBC;" vertex="1" parent="1">
          <mxGeometry x="2635" y="1740" width="10" height="210" as="geometry" />
        </mxCell>
        <mxCell id="ETDFAHdAhKj-0lvHRUFN-122" value="&lt;div&gt;Loads delete menu&lt;/div&gt;" style="html=1;verticalAlign=bottom;endArrow=open;dashed=1;endSize=8;edgeStyle=elbowEdgeStyle;elbow=horizontal;curved=0;rounded=0;" edge="1" parent="1">
          <mxGeometry x="-0.4915" relative="1" as="geometry">
            <mxPoint x="2265" y="1830" as="targetPoint" />
            <Array as="points">
              <mxPoint x="2285" y="1830" />
            </Array>
            <mxPoint x="2635" y="1830" as="sourcePoint" />
            <mxPoint as="offset" />
          </mxGeometry>
        </mxCell>
        <mxCell id="ETDFAHdAhKj-0lvHRUFN-123" value="completeTimerinit()" style="html=1;verticalAlign=bottom;endArrow=block;edgeStyle=elbowEdgeStyle;elbow=vertical;curved=0;rounded=0;" edge="1" parent="1">
          <mxGeometry x="-0.6267" relative="1" as="geometry">
            <mxPoint x="2260" y="1870" as="sourcePoint" />
            <Array as="points" />
            <mxPoint x="2635" y="1870" as="targetPoint" />
            <mxPoint as="offset" />
          </mxGeometry>
        </mxCell>
        <mxCell id="ETDFAHdAhKj-0lvHRUFN-124" value="completeSETUPTIMER()" style="html=1;verticalAlign=bottom;endArrow=block;edgeStyle=elbowEdgeStyle;elbow=horizontal;curved=0;rounded=0;" edge="1" parent="1">
          <mxGeometry x="0.2743" relative="1" as="geometry">
            <mxPoint x="1860" y="1850" as="sourcePoint" />
            <Array as="points">
              <mxPoint x="1580" y="1850" />
            </Array>
            <mxPoint x="2255" y="1850" as="targetPoint" />
            <mxPoint as="offset" />
          </mxGeometry>
        </mxCell>
        <mxCell id="ETDFAHdAhKj-0lvHRUFN-125" value="deleteTask()" style="html=1;verticalAlign=bottom;endArrow=block;edgeStyle=elbowEdgeStyle;elbow=vertical;curved=0;rounded=0;" edge="1" parent="1">
          <mxGeometry x="-0.7681" relative="1" as="geometry">
            <mxPoint x="1875" y="1760" as="sourcePoint" />
            <Array as="points" />
            <mxPoint x="2635" y="1760.5" as="targetPoint" />
            <mxPoint as="offset" />
          </mxGeometry>
        </mxCell>
        <mxCell id="ETDFAHdAhKj-0lvHRUFN-126" value="Loads task screen and after set amount of time completes task" style="html=1;verticalAlign=bottom;endArrow=open;dashed=1;endSize=8;edgeStyle=elbowEdgeStyle;elbow=horizontal;curved=0;rounded=0;" edge="1" parent="1">
          <mxGeometry x="0.4834" relative="1" as="geometry">
            <mxPoint x="1875" y="1940" as="targetPoint" />
            <Array as="points">
              <mxPoint x="2280" y="1940" />
            </Array>
            <mxPoint x="2630" y="1940" as="sourcePoint" />
            <mxPoint as="offset" />
          </mxGeometry>
        </mxCell>
        <mxCell id="ETDFAHdAhKj-0lvHRUFN-127" value="" style="endArrow=none;dashed=1;html=1;rounded=0;exitX=-0.001;exitY=0.449;exitDx=0;exitDy=0;exitPerimeter=0;entryX=1.001;entryY=0.449;entryDx=0;entryDy=0;entryPerimeter=0;" edge="1" parent="1">
          <mxGeometry width="50" height="50" relative="1" as="geometry">
            <mxPoint x="1500" y="2000" as="sourcePoint" />
            <mxPoint x="2842.6800000000003" y="2000" as="targetPoint" />
          </mxGeometry>
        </mxCell>
        <mxCell id="ETDFAHdAhKj-0lvHRUFN-128" value="[Remove Completion]" style="text;html=1;align=center;verticalAlign=middle;resizable=0;points=[];autosize=1;strokeColor=none;fillColor=none;" vertex="1" parent="1">
          <mxGeometry x="2650" y="1998" width="140" height="30" as="geometry" />
        </mxCell>
        <mxCell id="ETDFAHdAhKj-0lvHRUFN-129" value="" style="html=1;points=[];perimeter=orthogonalPerimeter;outlineConnect=0;targetShapes=umlLifeline;portConstraint=eastwest;newEdgeStyle={&quot;edgeStyle&quot;:&quot;elbowEdgeStyle&quot;,&quot;elbow&quot;:&quot;vertical&quot;,&quot;curved&quot;:0,&quot;rounded&quot;:0};fillColor=#0050ef;fontColor=#ffffff;strokeColor=#001DBC;" vertex="1" parent="1">
          <mxGeometry x="1865" y="2040" width="10" height="120" as="geometry" />
        </mxCell>
        <mxCell id="ETDFAHdAhKj-0lvHRUFN-130" value="completeButton()" style="html=1;verticalAlign=bottom;endArrow=block;edgeStyle=elbowEdgeStyle;elbow=horizontal;curved=0;rounded=0;" edge="1" parent="1">
          <mxGeometry x="0.2743" relative="1" as="geometry">
            <mxPoint x="1860" y="2060" as="sourcePoint" />
            <Array as="points">
              <mxPoint x="1580" y="2060" />
            </Array>
            <mxPoint x="1865" y="2060" as="targetPoint" />
            <mxPoint as="offset" />
          </mxGeometry>
        </mxCell>
        <mxCell id="ETDFAHdAhKj-0lvHRUFN-131" value="completeTask()" style="html=1;verticalAlign=bottom;endArrow=block;edgeStyle=elbowEdgeStyle;elbow=vertical;curved=0;rounded=0;" edge="1" parent="1">
          <mxGeometry x="-0.8028" y="1" relative="1" as="geometry">
            <mxPoint x="1875" y="2095" as="sourcePoint" />
            <Array as="points" />
            <mxPoint x="2635" y="2094.5" as="targetPoint" />
            <mxPoint y="1" as="offset" />
          </mxGeometry>
        </mxCell>
        <mxCell id="ETDFAHdAhKj-0lvHRUFN-132" value="Loads task screen, task already completed so removes completion" style="html=1;verticalAlign=bottom;endArrow=open;dashed=1;endSize=8;edgeStyle=elbowEdgeStyle;elbow=horizontal;curved=0;rounded=0;" edge="1" parent="1">
          <mxGeometry x="0.4834" relative="1" as="geometry">
            <mxPoint x="1875" y="2140" as="targetPoint" />
            <Array as="points">
              <mxPoint x="2280" y="2140" />
            </Array>
            <mxPoint x="2630" y="2140" as="sourcePoint" />
            <mxPoint as="offset" />
          </mxGeometry>
        </mxCell>
        <mxCell id="ETDFAHdAhKj-0lvHRUFN-133" value="" style="endArrow=none;dashed=1;html=1;rounded=0;entryX=0.998;entryY=0.11;entryDx=0;entryDy=0;entryPerimeter=0;" edge="1" parent="1">
          <mxGeometry width="50" height="50" relative="1" as="geometry">
            <mxPoint x="1478" y="2220" as="sourcePoint" />
            <mxPoint x="2870" y="2221" as="targetPoint" />
          </mxGeometry>
        </mxCell>
        <mxCell id="ETDFAHdAhKj-0lvHRUFN-134" value="[Edit List]" style="text;html=1;align=center;verticalAlign=middle;resizable=0;points=[];autosize=1;strokeColor=none;fillColor=none;" vertex="1" parent="1">
          <mxGeometry x="2690" y="2230" width="70" height="30" as="geometry" />
        </mxCell>
        <mxCell id="ETDFAHdAhKj-0lvHRUFN-135" value="edit_screen" style="shape=umlLifeline;perimeter=lifelinePerimeter;whiteSpace=wrap;html=1;container=0;dropTarget=0;collapsible=0;recursiveResize=0;outlineConnect=0;portConstraint=eastwest;newEdgeStyle={&quot;edgeStyle&quot;:&quot;elbowEdgeStyle&quot;,&quot;elbow&quot;:&quot;vertical&quot;,&quot;curved&quot;:0,&quot;rounded&quot;:0};" vertex="1" parent="1">
          <mxGeometry x="2330" y="430" width="100" height="3730" as="geometry" />
        </mxCell>
        <mxCell id="ETDFAHdAhKj-0lvHRUFN-136" value="" style="html=1;points=[];perimeter=orthogonalPerimeter;outlineConnect=0;targetShapes=umlLifeline;portConstraint=eastwest;newEdgeStyle={&quot;edgeStyle&quot;:&quot;elbowEdgeStyle&quot;,&quot;elbow&quot;:&quot;vertical&quot;,&quot;curved&quot;:0,&quot;rounded&quot;:0};fillColor=#0050ef;fontColor=#ffffff;strokeColor=#001DBC;" vertex="1" parent="ETDFAHdAhKj-0lvHRUFN-135">
          <mxGeometry x="45" y="1940" width="10" height="110" as="geometry" />
        </mxCell>
        <mxCell id="ETDFAHdAhKj-0lvHRUFN-137" value="" style="html=1;points=[];perimeter=orthogonalPerimeter;outlineConnect=0;targetShapes=umlLifeline;portConstraint=eastwest;newEdgeStyle={&quot;edgeStyle&quot;:&quot;elbowEdgeStyle&quot;,&quot;elbow&quot;:&quot;vertical&quot;,&quot;curved&quot;:0,&quot;rounded&quot;:0};fillColor=#0050ef;fontColor=#ffffff;strokeColor=#001DBC;" vertex="1" parent="1">
          <mxGeometry x="1865" y="2280" width="10" height="60" as="geometry" />
        </mxCell>
        <mxCell id="ETDFAHdAhKj-0lvHRUFN-138" value="editButton()" style="html=1;verticalAlign=bottom;endArrow=block;edgeStyle=elbowEdgeStyle;elbow=horizontal;curved=0;rounded=0;" edge="1" parent="1">
          <mxGeometry x="0.2743" relative="1" as="geometry">
            <mxPoint x="1860" y="2290" as="sourcePoint" />
            <Array as="points">
              <mxPoint x="1580" y="2290" />
            </Array>
            <mxPoint x="1865" y="2290" as="targetPoint" />
            <mxPoint as="offset" />
          </mxGeometry>
        </mxCell>
        <mxCell id="ETDFAHdAhKj-0lvHRUFN-139" value="" style="html=1;points=[];perimeter=orthogonalPerimeter;outlineConnect=0;targetShapes=umlLifeline;portConstraint=eastwest;newEdgeStyle={&quot;edgeStyle&quot;:&quot;elbowEdgeStyle&quot;,&quot;elbow&quot;:&quot;vertical&quot;,&quot;curved&quot;:0,&quot;rounded&quot;:0};fillColor=#0050ef;fontColor=#ffffff;strokeColor=#001DBC;" vertex="1" parent="1">
          <mxGeometry x="2635" y="2320" width="10" height="220" as="geometry" />
        </mxCell>
        <mxCell id="ETDFAHdAhKj-0lvHRUFN-140" value="editList()" style="html=1;verticalAlign=bottom;endArrow=block;edgeStyle=elbowEdgeStyle;elbow=vertical;curved=0;rounded=0;" edge="1" parent="1">
          <mxGeometry x="-0.8028" y="1" relative="1" as="geometry">
            <mxPoint x="1875" y="2330.5" as="sourcePoint" />
            <Array as="points" />
            <mxPoint x="2635" y="2330" as="targetPoint" />
            <mxPoint y="1" as="offset" />
          </mxGeometry>
        </mxCell>
        <mxCell id="ETDFAHdAhKj-0lvHRUFN-141" value="Loads edittable list" style="html=1;verticalAlign=bottom;endArrow=open;dashed=1;endSize=8;edgeStyle=elbowEdgeStyle;elbow=horizontal;curved=0;rounded=0;" edge="1" parent="1">
          <mxGeometry x="-0.4915" relative="1" as="geometry">
            <mxPoint x="2390" y="2390" as="targetPoint" />
            <Array as="points" />
            <mxPoint x="2635" y="2390" as="sourcePoint" />
            <mxPoint as="offset" />
          </mxGeometry>
        </mxCell>
        <mxCell id="ETDFAHdAhKj-0lvHRUFN-142" value="listChanges()" style="html=1;verticalAlign=bottom;endArrow=block;edgeStyle=elbowEdgeStyle;elbow=horizontal;curved=0;rounded=0;" edge="1" parent="1">
          <mxGeometry x="0.2743" relative="1" as="geometry">
            <mxPoint x="1850" y="2413.5" as="sourcePoint" />
            <Array as="points">
              <mxPoint x="1570" y="2413.5" />
            </Array>
            <mxPoint x="2375" y="2413.5" as="targetPoint" />
            <mxPoint as="offset" />
          </mxGeometry>
        </mxCell>
        <mxCell id="ETDFAHdAhKj-0lvHRUFN-143" value="changesTasks()" style="html=1;verticalAlign=bottom;endArrow=block;edgeStyle=elbowEdgeStyle;elbow=vertical;curved=0;rounded=0;" edge="1" parent="1">
          <mxGeometry x="-0.6267" relative="1" as="geometry">
            <mxPoint x="2390" y="2470" as="sourcePoint" />
            <Array as="points" />
            <mxPoint x="2635" y="2470" as="targetPoint" />
            <mxPoint as="offset" />
          </mxGeometry>
        </mxCell>
        <mxCell id="ETDFAHdAhKj-0lvHRUFN-144" value="" style="html=1;points=[];perimeter=orthogonalPerimeter;outlineConnect=0;targetShapes=umlLifeline;portConstraint=eastwest;newEdgeStyle={&quot;edgeStyle&quot;:&quot;elbowEdgeStyle&quot;,&quot;elbow&quot;:&quot;vertical&quot;,&quot;curved&quot;:0,&quot;rounded&quot;:0};fillColor=#0050ef;fontColor=#ffffff;strokeColor=#001DBC;" vertex="1" parent="1">
          <mxGeometry x="1865" y="2510" width="10" height="60" as="geometry" />
        </mxCell>
        <mxCell id="ETDFAHdAhKj-0lvHRUFN-145" value="&lt;div&gt;Loads new list&lt;/div&gt;" style="html=1;verticalAlign=bottom;endArrow=open;dashed=1;endSize=8;edgeStyle=elbowEdgeStyle;elbow=horizontal;curved=0;rounded=0;" edge="1" parent="1">
          <mxGeometry x="0.4834" relative="1" as="geometry">
            <mxPoint x="1875" y="2520" as="targetPoint" />
            <Array as="points">
              <mxPoint x="2280" y="2520" />
            </Array>
            <mxPoint x="2630" y="2520" as="sourcePoint" />
            <mxPoint as="offset" />
          </mxGeometry>
        </mxCell>
        <mxCell id="ETDFAHdAhKj-0lvHRUFN-146" value="saveChanges()" style="html=1;verticalAlign=bottom;endArrow=block;edgeStyle=elbowEdgeStyle;elbow=horizontal;curved=0;rounded=0;" edge="1" parent="1">
          <mxGeometry x="0.2743" relative="1" as="geometry">
            <mxPoint x="1850" y="2440" as="sourcePoint" />
            <Array as="points">
              <mxPoint x="1570" y="2440" />
            </Array>
            <mxPoint x="2375" y="2440" as="targetPoint" />
            <mxPoint as="offset" />
          </mxGeometry>
        </mxCell>
        <mxCell id="ETDFAHdAhKj-0lvHRUFN-147" value="" style="endArrow=none;dashed=1;html=1;rounded=0;entryX=0.998;entryY=0.11;entryDx=0;entryDy=0;entryPerimeter=0;" edge="1" parent="1">
          <mxGeometry width="50" height="50" relative="1" as="geometry">
            <mxPoint x="1478" y="2580" as="sourcePoint" />
            <mxPoint x="2870" y="2581" as="targetPoint" />
          </mxGeometry>
        </mxCell>
        <mxCell id="ETDFAHdAhKj-0lvHRUFN-148" value="[Task Order]" style="text;html=1;align=center;verticalAlign=middle;resizable=0;points=[];autosize=1;strokeColor=none;fillColor=none;" vertex="1" parent="1">
          <mxGeometry x="2680" y="2590" width="90" height="30" as="geometry" />
        </mxCell>
        <mxCell id="ETDFAHdAhKj-0lvHRUFN-149" value="" style="endArrow=none;dashed=1;html=1;rounded=0;entryX=0.998;entryY=0.11;entryDx=0;entryDy=0;entryPerimeter=0;" edge="1" parent="1">
          <mxGeometry width="50" height="50" relative="1" as="geometry">
            <mxPoint x="1478" y="2770" as="sourcePoint" />
            <mxPoint x="2870" y="2771" as="targetPoint" />
          </mxGeometry>
        </mxCell>
        <mxCell id="ETDFAHdAhKj-0lvHRUFN-150" value="" style="html=1;points=[];perimeter=orthogonalPerimeter;outlineConnect=0;targetShapes=umlLifeline;portConstraint=eastwest;newEdgeStyle={&quot;edgeStyle&quot;:&quot;elbowEdgeStyle&quot;,&quot;elbow&quot;:&quot;vertical&quot;,&quot;curved&quot;:0,&quot;rounded&quot;:0};fillColor=#0050ef;fontColor=#ffffff;strokeColor=#001DBC;" vertex="1" parent="1">
          <mxGeometry x="1865" y="2610" width="10" height="130" as="geometry" />
        </mxCell>
        <mxCell id="ETDFAHdAhKj-0lvHRUFN-151" value="" style="html=1;points=[];perimeter=orthogonalPerimeter;outlineConnect=0;targetShapes=umlLifeline;portConstraint=eastwest;newEdgeStyle={&quot;edgeStyle&quot;:&quot;elbowEdgeStyle&quot;,&quot;elbow&quot;:&quot;vertical&quot;,&quot;curved&quot;:0,&quot;rounded&quot;:0};fillColor=#0050ef;fontColor=#ffffff;strokeColor=#001DBC;" vertex="1" parent="1">
          <mxGeometry x="2635" y="2630" width="10" height="100" as="geometry" />
        </mxCell>
        <mxCell id="ETDFAHdAhKj-0lvHRUFN-152" value="orderButton()" style="html=1;verticalAlign=bottom;endArrow=block;edgeStyle=elbowEdgeStyle;elbow=horizontal;curved=0;rounded=0;" edge="1" parent="1">
          <mxGeometry x="0.2743" relative="1" as="geometry">
            <mxPoint x="1860" y="2630" as="sourcePoint" />
            <Array as="points">
              <mxPoint x="1580" y="2630" />
            </Array>
            <mxPoint x="1865" y="2630" as="targetPoint" />
            <mxPoint as="offset" />
          </mxGeometry>
        </mxCell>
        <mxCell id="ETDFAHdAhKj-0lvHRUFN-153" value="changeOrder()" style="html=1;verticalAlign=bottom;endArrow=block;edgeStyle=elbowEdgeStyle;elbow=vertical;curved=0;rounded=0;" edge="1" parent="1">
          <mxGeometry x="-0.8028" y="1" relative="1" as="geometry">
            <mxPoint x="1875" y="2660.5" as="sourcePoint" />
            <Array as="points" />
            <mxPoint x="2635" y="2660" as="targetPoint" />
            <mxPoint y="1" as="offset" />
          </mxGeometry>
        </mxCell>
        <mxCell id="ETDFAHdAhKj-0lvHRUFN-154" value="&lt;div&gt;Loads new list&lt;/div&gt;" style="html=1;verticalAlign=bottom;endArrow=open;dashed=1;endSize=8;edgeStyle=elbowEdgeStyle;elbow=horizontal;curved=0;rounded=0;" edge="1" parent="1">
          <mxGeometry x="0.4834" relative="1" as="geometry">
            <mxPoint x="1875" y="2720" as="targetPoint" />
            <Array as="points">
              <mxPoint x="2280" y="2720" />
            </Array>
            <mxPoint x="2630" y="2720" as="sourcePoint" />
            <mxPoint as="offset" />
          </mxGeometry>
        </mxCell>
        <mxCell id="ETDFAHdAhKj-0lvHRUFN-155" value="[Load different list]" style="text;html=1;align=center;verticalAlign=middle;resizable=0;points=[];autosize=1;strokeColor=none;fillColor=none;" vertex="1" parent="1">
          <mxGeometry x="2675" y="2780" width="120" height="30" as="geometry" />
        </mxCell>
        <mxCell id="ETDFAHdAhKj-0lvHRUFN-156" value="" style="html=1;points=[];perimeter=orthogonalPerimeter;outlineConnect=0;targetShapes=umlLifeline;portConstraint=eastwest;newEdgeStyle={&quot;edgeStyle&quot;:&quot;elbowEdgeStyle&quot;,&quot;elbow&quot;:&quot;vertical&quot;,&quot;curved&quot;:0,&quot;rounded&quot;:0};fillColor=#0050ef;fontColor=#ffffff;strokeColor=#001DBC;" vertex="1" parent="1">
          <mxGeometry x="1865" y="2820" width="10" height="130" as="geometry" />
        </mxCell>
        <mxCell id="ETDFAHdAhKj-0lvHRUFN-157" value="loadButton()" style="html=1;verticalAlign=bottom;endArrow=block;edgeStyle=elbowEdgeStyle;elbow=horizontal;curved=0;rounded=0;" edge="1" parent="1">
          <mxGeometry x="0.2743" relative="1" as="geometry">
            <mxPoint x="1860" y="2840" as="sourcePoint" />
            <Array as="points">
              <mxPoint x="1580" y="2840" />
            </Array>
            <mxPoint x="1865" y="2840" as="targetPoint" />
            <mxPoint as="offset" />
          </mxGeometry>
        </mxCell>
        <mxCell id="ETDFAHdAhKj-0lvHRUFN-158" value="sl_file_menu" style="shape=umlLifeline;perimeter=lifelinePerimeter;whiteSpace=wrap;html=1;container=0;dropTarget=0;collapsible=0;recursiveResize=0;outlineConnect=0;portConstraint=eastwest;newEdgeStyle={&quot;edgeStyle&quot;:&quot;elbowEdgeStyle&quot;,&quot;elbow&quot;:&quot;vertical&quot;,&quot;curved&quot;:0,&quot;rounded&quot;:0};" vertex="1" parent="1">
          <mxGeometry x="2130" y="2770" width="120" height="1480" as="geometry" />
        </mxCell>
        <mxCell id="ETDFAHdAhKj-0lvHRUFN-159" value="" style="html=1;points=[];perimeter=orthogonalPerimeter;outlineConnect=0;targetShapes=umlLifeline;portConstraint=eastwest;newEdgeStyle={&quot;edgeStyle&quot;:&quot;elbowEdgeStyle&quot;,&quot;elbow&quot;:&quot;vertical&quot;,&quot;curved&quot;:0,&quot;rounded&quot;:0};fillColor=#0050ef;fontColor=#ffffff;strokeColor=#001DBC;" vertex="1" parent="ETDFAHdAhKj-0lvHRUFN-158">
          <mxGeometry x="55" y="100" width="10" height="80" as="geometry" />
        </mxCell>
        <mxCell id="ETDFAHdAhKj-0lvHRUFN-160" value="" style="html=1;points=[];perimeter=orthogonalPerimeter;outlineConnect=0;targetShapes=umlLifeline;portConstraint=eastwest;newEdgeStyle={&quot;edgeStyle&quot;:&quot;elbowEdgeStyle&quot;,&quot;elbow&quot;:&quot;vertical&quot;,&quot;curved&quot;:0,&quot;rounded&quot;:0};fillColor=#0050ef;fontColor=#ffffff;strokeColor=#001DBC;" vertex="1" parent="ETDFAHdAhKj-0lvHRUFN-158">
          <mxGeometry x="55" y="260" width="10" height="100" as="geometry" />
        </mxCell>
        <mxCell id="ETDFAHdAhKj-0lvHRUFN-161" value="loadoption()" style="html=1;verticalAlign=bottom;endArrow=block;edgeStyle=elbowEdgeStyle;elbow=horizontal;curved=0;rounded=0;" edge="1" parent="1">
          <mxGeometry x="0.2743" relative="1" as="geometry">
            <mxPoint x="2180" y="2890" as="sourcePoint" />
            <Array as="points">
              <mxPoint x="1570" y="2880" />
            </Array>
            <mxPoint x="2185" y="2890" as="targetPoint" />
            <mxPoint as="offset" />
          </mxGeometry>
        </mxCell>
        <mxCell id="ETDFAHdAhKj-0lvHRUFN-162" value="&lt;div&gt;Loads other list&lt;/div&gt;" style="html=1;verticalAlign=bottom;endArrow=open;dashed=1;endSize=8;edgeStyle=elbowEdgeStyle;elbow=horizontal;curved=0;rounded=0;" edge="1" parent="1">
          <mxGeometry x="0.4834" relative="1" as="geometry">
            <mxPoint x="1880" y="2940" as="targetPoint" />
            <Array as="points">
              <mxPoint x="2025" y="2940" />
            </Array>
            <mxPoint x="2190" y="2940" as="sourcePoint" />
            <mxPoint as="offset" />
          </mxGeometry>
        </mxCell>
        <mxCell id="ETDFAHdAhKj-0lvHRUFN-163" value="" style="endArrow=none;dashed=1;html=1;rounded=0;entryX=0.998;entryY=0.11;entryDx=0;entryDy=0;entryPerimeter=0;" edge="1" parent="1">
          <mxGeometry width="50" height="50" relative="1" as="geometry">
            <mxPoint x="1478" y="3000" as="sourcePoint" />
            <mxPoint x="2870" y="3001" as="targetPoint" />
          </mxGeometry>
        </mxCell>
        <mxCell id="ETDFAHdAhKj-0lvHRUFN-164" value="" style="html=1;points=[];perimeter=orthogonalPerimeter;outlineConnect=0;targetShapes=umlLifeline;portConstraint=eastwest;newEdgeStyle={&quot;edgeStyle&quot;:&quot;elbowEdgeStyle&quot;,&quot;elbow&quot;:&quot;vertical&quot;,&quot;curved&quot;:0,&quot;rounded&quot;:0};fillColor=#0050ef;fontColor=#ffffff;strokeColor=#001DBC;" vertex="1" parent="1">
          <mxGeometry x="1865" y="3020" width="10" height="130" as="geometry" />
        </mxCell>
        <mxCell id="ETDFAHdAhKj-0lvHRUFN-165" value="[Save list]" style="text;html=1;align=center;verticalAlign=middle;resizable=0;points=[];autosize=1;strokeColor=none;fillColor=none;" vertex="1" parent="1">
          <mxGeometry x="2695" y="3008" width="80" height="30" as="geometry" />
        </mxCell>
        <mxCell id="ETDFAHdAhKj-0lvHRUFN-166" value="saveButton()" style="html=1;verticalAlign=bottom;endArrow=block;edgeStyle=elbowEdgeStyle;elbow=horizontal;curved=0;rounded=0;" edge="1" parent="1">
          <mxGeometry x="0.2743" relative="1" as="geometry">
            <mxPoint x="1860" y="3038" as="sourcePoint" />
            <Array as="points">
              <mxPoint x="1580" y="3038" />
            </Array>
            <mxPoint x="1865" y="3038" as="targetPoint" />
            <mxPoint as="offset" />
          </mxGeometry>
        </mxCell>
        <mxCell id="ETDFAHdAhKj-0lvHRUFN-167" value="saveList()" style="html=1;verticalAlign=bottom;endArrow=block;edgeStyle=elbowEdgeStyle;elbow=horizontal;curved=0;rounded=0;entryX=0.5;entryY=0.308;entryDx=0;entryDy=0;entryPerimeter=0;" edge="1" parent="1">
          <mxGeometry x="-0.7419" relative="1" as="geometry">
            <mxPoint x="1570" y="3060" as="sourcePoint" />
            <Array as="points" />
            <mxPoint x="2190" y="3060" as="targetPoint" />
            <mxPoint as="offset" />
          </mxGeometry>
        </mxCell>
        <mxCell id="ETDFAHdAhKj-0lvHRUFN-168" value="Loads back previous screen" style="html=1;verticalAlign=bottom;endArrow=open;dashed=1;endSize=8;edgeStyle=elbowEdgeStyle;elbow=horizontal;curved=0;rounded=0;" edge="1" parent="1">
          <mxGeometry x="0.4834" relative="1" as="geometry">
            <mxPoint x="1875" y="3110" as="targetPoint" />
            <Array as="points">
              <mxPoint x="2020" y="3110" />
            </Array>
            <mxPoint x="2185" y="3110" as="sourcePoint" />
            <mxPoint as="offset" />
          </mxGeometry>
        </mxCell>
        <mxCell id="ETDFAHdAhKj-0lvHRUFN-169" value="[No list found]" style="text;html=1;align=center;verticalAlign=middle;resizable=0;points=[];autosize=1;strokeColor=none;fillColor=none;" vertex="1" parent="1">
          <mxGeometry x="2010" y="3198" width="100" height="30" as="geometry" />
        </mxCell>
        <mxCell id="ETDFAHdAhKj-0lvHRUFN-170" value="No tasks found" style="html=1;verticalAlign=bottom;endArrow=open;dashed=1;endSize=8;edgeStyle=elbowEdgeStyle;elbow=horizontal;curved=0;rounded=0;" edge="1" parent="1">
          <mxGeometry x="-0.8154" relative="1" as="geometry">
            <mxPoint x="2310" y="3270" as="targetPoint" />
            <Array as="points" />
            <mxPoint x="2805" y="3270" as="sourcePoint" />
            <mxPoint as="offset" />
          </mxGeometry>
        </mxCell>
        <mxCell id="ETDFAHdAhKj-0lvHRUFN-171" value="empty_screen" style="shape=umlLifeline;perimeter=lifelinePerimeter;whiteSpace=wrap;html=1;container=0;dropTarget=0;collapsible=0;recursiveResize=0;outlineConnect=0;portConstraint=eastwest;newEdgeStyle={&quot;edgeStyle&quot;:&quot;elbowEdgeStyle&quot;,&quot;elbow&quot;:&quot;vertical&quot;,&quot;curved&quot;:0,&quot;rounded&quot;:0};" vertex="1" parent="1">
          <mxGeometry x="2250" y="3210" width="120" height="1050" as="geometry" />
        </mxCell>
        <mxCell id="ETDFAHdAhKj-0lvHRUFN-172" value="" style="html=1;points=[];perimeter=orthogonalPerimeter;outlineConnect=0;targetShapes=umlLifeline;portConstraint=eastwest;newEdgeStyle={&quot;edgeStyle&quot;:&quot;elbowEdgeStyle&quot;,&quot;elbow&quot;:&quot;vertical&quot;,&quot;curved&quot;:0,&quot;rounded&quot;:0};fillColor=#0050ef;fontColor=#ffffff;strokeColor=#001DBC;" vertex="1" parent="ETDFAHdAhKj-0lvHRUFN-171">
          <mxGeometry x="55" y="50" width="10" height="180" as="geometry" />
        </mxCell>
        <mxCell id="ETDFAHdAhKj-0lvHRUFN-173" value="" style="html=1;points=[];perimeter=orthogonalPerimeter;outlineConnect=0;targetShapes=umlLifeline;portConstraint=eastwest;newEdgeStyle={&quot;edgeStyle&quot;:&quot;elbowEdgeStyle&quot;,&quot;elbow&quot;:&quot;vertical&quot;,&quot;curved&quot;:0,&quot;rounded&quot;:0};fillColor=#0050ef;fontColor=#ffffff;strokeColor=#001DBC;" vertex="1" parent="ETDFAHdAhKj-0lvHRUFN-171">
          <mxGeometry x="55" y="610" width="10" height="90" as="geometry" />
        </mxCell>
        <mxCell id="ETDFAHdAhKj-0lvHRUFN-174" value="alt" style="shape=umlFrame;whiteSpace=wrap;html=1;pointerEvents=0;" vertex="1" parent="1">
          <mxGeometry x="1480" y="3300" width="1370" height="820" as="geometry" />
        </mxCell>
        <mxCell id="ETDFAHdAhKj-0lvHRUFN-175" value="" style="endArrow=none;dashed=1;html=1;rounded=0;entryX=0.998;entryY=0.11;entryDx=0;entryDy=0;entryPerimeter=0;" edge="1" parent="1">
          <mxGeometry width="50" height="50" relative="1" as="geometry">
            <mxPoint x="1480" y="3770" as="sourcePoint" />
            <mxPoint x="2872" y="3771" as="targetPoint" />
          </mxGeometry>
        </mxCell>
        <mxCell id="ETDFAHdAhKj-0lvHRUFN-176" value="[Load list]" style="text;html=1;align=center;verticalAlign=middle;resizable=0;points=[];autosize=1;strokeColor=none;fillColor=none;" vertex="1" parent="1">
          <mxGeometry x="2030" y="3320" width="70" height="30" as="geometry" />
        </mxCell>
        <mxCell id="ETDFAHdAhKj-0lvHRUFN-177" value="loadButton()" style="html=1;verticalAlign=bottom;endArrow=block;edgeStyle=elbowEdgeStyle;elbow=horizontal;curved=0;rounded=0;" edge="1" parent="1" target="ETDFAHdAhKj-0lvHRUFN-171">
          <mxGeometry x="0.2743" relative="1" as="geometry">
            <mxPoint x="1850" y="3370" as="sourcePoint" />
            <Array as="points">
              <mxPoint x="1570" y="3370" />
            </Array>
            <mxPoint x="1855" y="3370" as="targetPoint" />
            <mxPoint as="offset" />
          </mxGeometry>
        </mxCell>
        <mxCell id="ETDFAHdAhKj-0lvHRUFN-178" value="" style="html=1;points=[];perimeter=orthogonalPerimeter;outlineConnect=0;targetShapes=umlLifeline;portConstraint=eastwest;newEdgeStyle={&quot;edgeStyle&quot;:&quot;elbowEdgeStyle&quot;,&quot;elbow&quot;:&quot;vertical&quot;,&quot;curved&quot;:0,&quot;rounded&quot;:0};fillColor=#0050ef;fontColor=#ffffff;strokeColor=#001DBC;" vertex="1" parent="1">
          <mxGeometry x="2185" y="3410" width="10" height="100" as="geometry" />
        </mxCell>
        <mxCell id="ETDFAHdAhKj-0lvHRUFN-179" value="loadMenu()" style="html=1;verticalAlign=bottom;endArrow=block;edgeStyle=elbowEdgeStyle;elbow=horizontal;curved=0;rounded=0;" edge="1" parent="1" target="ETDFAHdAhKj-0lvHRUFN-158">
          <mxGeometry x="0.2743" relative="1" as="geometry">
            <mxPoint x="2155" y="2880" as="sourcePoint" />
            <Array as="points">
              <mxPoint x="1875" y="2880" />
            </Array>
            <mxPoint x="2160" y="2880" as="targetPoint" />
            <mxPoint as="offset" />
          </mxGeometry>
        </mxCell>
        <mxCell id="ETDFAHdAhKj-0lvHRUFN-180" value="loadMenu()" style="html=1;verticalAlign=bottom;endArrow=block;edgeStyle=elbowEdgeStyle;elbow=horizontal;curved=0;rounded=0;" edge="1" parent="1">
          <mxGeometry x="0.2743" relative="1" as="geometry">
            <mxPoint x="2155" y="3050" as="sourcePoint" />
            <Array as="points">
              <mxPoint x="1875" y="3050" />
            </Array>
            <mxPoint x="2190" y="3050" as="targetPoint" />
            <mxPoint as="offset" />
          </mxGeometry>
        </mxCell>
        <mxCell id="ETDFAHdAhKj-0lvHRUFN-181" value="loadMenu()" style="html=1;verticalAlign=bottom;endArrow=block;edgeStyle=elbowEdgeStyle;elbow=horizontal;curved=0;rounded=0;" edge="1" parent="1" target="ETDFAHdAhKj-0lvHRUFN-178">
          <mxGeometry x="0.2743" relative="1" as="geometry">
            <mxPoint x="2240" y="3430" as="sourcePoint" />
            <Array as="points">
              <mxPoint x="2300" y="3430" />
            </Array>
            <mxPoint x="2615" y="3430" as="targetPoint" />
            <mxPoint as="offset" />
          </mxGeometry>
        </mxCell>
        <mxCell id="ETDFAHdAhKj-0lvHRUFN-182" value="loadoption()" style="html=1;verticalAlign=bottom;endArrow=block;edgeStyle=elbowEdgeStyle;elbow=horizontal;curved=0;rounded=0;" edge="1" parent="1">
          <mxGeometry x="0.2743" relative="1" as="geometry">
            <mxPoint x="2180" y="3450" as="sourcePoint" />
            <Array as="points">
              <mxPoint x="1570" y="3440" />
            </Array>
            <mxPoint x="2185" y="3450" as="targetPoint" />
            <mxPoint as="offset" />
          </mxGeometry>
        </mxCell>
        <mxCell id="ETDFAHdAhKj-0lvHRUFN-183" value="" style="html=1;points=[];perimeter=orthogonalPerimeter;outlineConnect=0;targetShapes=umlLifeline;portConstraint=eastwest;newEdgeStyle={&quot;edgeStyle&quot;:&quot;elbowEdgeStyle&quot;,&quot;elbow&quot;:&quot;vertical&quot;,&quot;curved&quot;:0,&quot;rounded&quot;:0};fillColor=#0050ef;fontColor=#ffffff;strokeColor=#001DBC;" vertex="1" parent="1">
          <mxGeometry x="1865" y="3470" width="10" height="90" as="geometry" />
        </mxCell>
        <mxCell id="ETDFAHdAhKj-0lvHRUFN-184" value="&lt;div&gt;Loads other list&lt;/div&gt;" style="html=1;verticalAlign=bottom;endArrow=open;dashed=1;endSize=8;edgeStyle=elbowEdgeStyle;elbow=horizontal;curved=0;rounded=0;" edge="1" parent="1">
          <mxGeometry x="0.4834" relative="1" as="geometry">
            <mxPoint x="1875" y="3500" as="targetPoint" />
            <Array as="points">
              <mxPoint x="2020" y="3500" />
            </Array>
            <mxPoint x="2185" y="3500" as="sourcePoint" />
            <mxPoint as="offset" />
          </mxGeometry>
        </mxCell>
        <mxCell id="ETDFAHdAhKj-0lvHRUFN-185" value="[Enter task on empty list]" style="text;html=1;align=center;verticalAlign=middle;resizable=0;points=[];autosize=1;strokeColor=none;fillColor=none;" vertex="1" parent="1">
          <mxGeometry x="1975" y="3778" width="150" height="30" as="geometry" />
        </mxCell>
        <mxCell id="ETDFAHdAhKj-0lvHRUFN-186" value="addTaskbuttonpress()" style="html=1;verticalAlign=bottom;endArrow=block;edgeStyle=elbowEdgeStyle;elbow=horizontal;curved=0;rounded=0;" edge="1" parent="1">
          <mxGeometry x="0.2743" relative="1" as="geometry">
            <mxPoint x="1850" y="3830" as="sourcePoint" />
            <Array as="points">
              <mxPoint x="1570" y="3830" />
            </Array>
            <mxPoint x="2310" y="3830" as="targetPoint" />
            <mxPoint as="offset" />
          </mxGeometry>
        </mxCell>
        <mxCell id="ETDFAHdAhKj-0lvHRUFN-187" value="" style="html=1;points=[];perimeter=orthogonalPerimeter;outlineConnect=0;targetShapes=umlLifeline;portConstraint=eastwest;newEdgeStyle={&quot;edgeStyle&quot;:&quot;elbowEdgeStyle&quot;,&quot;elbow&quot;:&quot;vertical&quot;,&quot;curved&quot;:0,&quot;rounded&quot;:0};fillColor=#0050ef;fontColor=#ffffff;strokeColor=#001DBC;" vertex="1" parent="1">
          <mxGeometry x="2635" y="3890" width="10" height="60" as="geometry" />
        </mxCell>
        <mxCell id="ETDFAHdAhKj-0lvHRUFN-188" value="addTask()" style="html=1;verticalAlign=bottom;endArrow=block;edgeStyle=elbowEdgeStyle;elbow=horizontal;curved=0;rounded=0;" edge="1" parent="1" source="ETDFAHdAhKj-0lvHRUFN-173">
          <mxGeometry x="0.275" relative="1" as="geometry">
            <mxPoint x="2330" y="3900" as="sourcePoint" />
            <Array as="points">
              <mxPoint x="2330" y="3900" />
            </Array>
            <mxPoint x="2635" y="3900" as="targetPoint" />
            <mxPoint as="offset" />
          </mxGeometry>
        </mxCell>
        <mxCell id="ETDFAHdAhKj-0lvHRUFN-189" value="" style="html=1;points=[];perimeter=orthogonalPerimeter;outlineConnect=0;targetShapes=umlLifeline;portConstraint=eastwest;newEdgeStyle={&quot;edgeStyle&quot;:&quot;elbowEdgeStyle&quot;,&quot;elbow&quot;:&quot;vertical&quot;,&quot;curved&quot;:0,&quot;rounded&quot;:0};fillColor=#0050ef;fontColor=#ffffff;strokeColor=#001DBC;" vertex="1" parent="1">
          <mxGeometry x="1865" y="3930" width="10" height="90" as="geometry" />
        </mxCell>
        <mxCell id="ETDFAHdAhKj-0lvHRUFN-190" value="&lt;div&gt;Loads new list with first task&lt;/div&gt;" style="html=1;verticalAlign=bottom;endArrow=open;dashed=1;endSize=8;edgeStyle=elbowEdgeStyle;elbow=horizontal;curved=0;rounded=0;" edge="1" parent="1" target="ETDFAHdAhKj-0lvHRUFN-189">
          <mxGeometry x="0.4834" relative="1" as="geometry">
            <mxPoint x="2325" y="3940" as="targetPoint" />
            <Array as="points">
              <mxPoint x="2470" y="3940" />
            </Array>
            <mxPoint x="2635" y="3940" as="sourcePoint" />
            <mxPoint as="offset" />
          </mxGeometry>
        </mxCell>
        <mxCell id="ETDFAHdAhKj-0lvHRUFN-191" value="&lt;br&gt;Περίπτωση&lt;br&gt;Χρήσης : Δημιουργία Λίστας Επιτευγμάτων&lt;br&gt;&lt;br&gt;Βασική Ροή :&lt;br&gt;1. Ο φοιτητής επιλέγει το πλαίσιο “Λίστα Στόχων”.&lt;br&gt;2. Το σύστημα φορτώνει τους ήδη καταχωρημένους στόχους.&lt;br&gt;3. Ο φοιτητής επιλέγει να δημιουργήσει νέο στόχο.&lt;br&gt;4. Ο φοιτητής πληκτρολογεί τον στόχο του.&lt;br&gt;5. O φοιτητής επιλέγει επιστροφή.&lt;br&gt;6.Το σύστημα οδηγεί στην αρχική οθόνη.&lt;br&gt;&lt;br&gt;Εναλλακτική Ροή 1 :&lt;br&gt;&lt;br&gt;2.α.1 Το σύστημα δεν βρήκε καταχωρημένους στόχους οπότε εμφανίζει κατάλληλο μήνυμα.&lt;br&gt;2.α.2 Ο φοιτητής επιλέγει φόρτωση υπάρχουσας λίστας μέσω αρχείου.&lt;br&gt;2.α.3 Το σύστημα φορτώνει τους στόχους.&lt;br&gt;2.α.4 Η περίπτωση χρήσης επιστρέφει στο δεύτερο βήμα βασικής ροής&lt;br&gt;Εναλλακτική Ροή 1.2&lt;br&gt;(2.α.2).α.1 Ο φοιτητής επιλέγει να ξεκινήσει νέα λίστα&lt;br&gt;(2.α.2.)α.2 Η περίπτωση χρήσης επιστρέφει στο δεύτερο βήμα βασικής ροής&lt;br&gt;&lt;br&gt;Εναλλακτική Ροή 2 :&lt;br&gt;3.α.1 Ο φοιτητής επιλέγει ολοκλήρωση στόχου.&lt;br&gt;3.α.2 Ο φοιτητής διαγράφει τον στόχο.&lt;br&gt;3.α.3 Η περίπτωση χρήσης επιστρέφει στο δεύτερο βήμα βασικής ροής.&lt;br&gt;&lt;br&gt;Εναλλακτική Ροή 2.2 :&lt;br&gt;(3.α.2).α.1 Το σύστημα σβήνει αυτόματα τον στόχο σε χρονικό διάστημα που ορίζει ο χρήστης με ρύθμιση.&lt;br&gt;(3.α.2).α.2 Η περίπτωση χρήσης επιστρέφει στο δεύτερο βήμα βασικής ροής.&lt;br&gt;Εναλλακτική Ροή 2.3 :&lt;br&gt;(3.α.2).β.1 Το σύστημα αφαιρεί την κατάσταση ολοκλήρωσης από τον στόχο σε χρονικό διάστημα που ορίζει ο χρήστης με ρύθμιση.&lt;br&gt;(3.α.2).β.2 Η περίπτωση χρήσης επιστρέφει στο δεύτερο βήμα βασικής ροής.&lt;br&gt;Εναλλακτική Ροή 2.4:&lt;br&gt;(3.α.2).γ.1 Ο φοιτητής αφαιρεί την κατάσταση ολοκλήρωσης από τον στόχο.&lt;br&gt;(3.α.2).γ.2 Η περίπτωση χρήσης επιστρέφει στο δεύτερο βήμα βασικής ροής.&lt;br&gt;&lt;br&gt;Εναλλακτική Ροή 3:&lt;br&gt;3.β.1 Ο φοιτητής επεξεργάζεται τη σειρά της λίστας.&lt;br&gt;3.β.2 Η περίπτωση χρήσης επιστρέφει στο δεύτερο βήμα βασικής ροής.&lt;br&gt;&lt;br&gt;Εναλλακτική Ροή 4:&lt;br&gt;3.γ.1 Ο φοιτητής επεξεργάζεται το κείμενο ενός επιτεύγματος.&lt;br&gt;3.γ.2 Η περίπτωση χρήσης επιστρέφει στο δεύτερο βήμα βασικής ροής.&lt;br&gt;&lt;br&gt;Εναλλακτική Ροή 5:&lt;br&gt;3.δ.1 Ο φοιτητής επιλέγει φόρτωση διαφορετικής λίστας.&lt;br&gt;3.δ.2 Το σύστημα φορτώνει επιλογές από φακέλους που έχει άδεια προβολής.&lt;br&gt;3.δ.3 Ο φοιτητής επιλέγει το αρχείο.&lt;br&gt;3.δ.4 Το σύστημα φορτώνει τη νέα λίστα.&lt;br&gt;3.δ.5 Η περίπτωση χρήσης επιστρέφει στο δεύτερο βήμα βασικής ροής.&lt;br&gt;&lt;br&gt;Εναλλακτική Ροή 6:&lt;br&gt;3.ε.1 Ο φοιτητής επιλέγει αποθήκευση της τωρινής λίστας.&lt;br&gt;3.ε.2 Το σύστημα δημιουργεί νέο αρχείο σε προεπιλεγμένο φάκελο.&lt;br&gt;3.ε.3 Η περίπτωση χρήσης επιστρέφει στο δεύτερο βήμα βασικής ροής." style="text;whiteSpace=wrap;html=1;fontSize=36;" vertex="1" parent="1">
          <mxGeometry x="610" y="440" width="750" height="1110" as="geometry" />
        </mxCell>
      </root>
    </mxGraphModel>
  </diagram>
</mxfile>
